<?xml version="1.0" encoding="utf-8"?>
<!-- Generator: Adobe Illustrator 19.2.0, SVG Export Plug-In . SVG Version: 6.00 Build 0)  -->
<svg version="1.1" id="Layer_1" xmlns="http://www.w3.org/2000/svg" xmlns:xlink="http://www.w3.org/1999/xlink" x="0px" y="0px"
	 viewBox="0 0 500 500" style="enable-background:new 0 0 500 500;" xml:space="preserve">
<style type="text/css">
	.st0{fill:none;stroke:#C7BA9F;stroke-width:7;stroke-miterlimit:10;}
	.st1{fill:#C7BA9F;}
	.st2{font-family:'Input-Regular';}
	.st3{font-size:24px;}
</style>
<circle class="st0" cx="250" cy="250" r="52.8"/>
<line class="st0" x1="192.1" y1="93.5" x2="143.1" y2="93.5"/>
<rect x="43.9" y="55.7" class="st0" width="99.2" height="75.7"/>
<text transform="matrix(1 0 0 1 224.375 256.3333)" class="st1 st2 st3">r.js</text>
<text transform="matrix(1 0 0 1 67.9839 103.6667)" class="st1 st2 st3">DOM</text>
<rect x="192.4" y="55.7" class="st0" width="115.3" height="75.7"/>
<text transform="matrix(1 0 0 1 208.9824 103.6667)" class="st1 st2 st3">render</text>
<rect x="43.9" y="386.3" class="st0" width="115.3" height="75.7"/>
<text transform="matrix(1 0 0 1 60.5709 434.3333)" class="st1 st2 st3">input1</text>
<rect x="341.9" y="386.3" class="st0" width="115.3" height="75.7"/>
<text transform="matrix(1 0 0 1 358.571 434.3333)" class="st1 st2 st3">input2</text>
<line class="st0" x1="250" y1="131.3" x2="250" y2="197.2"/>
<polyline class="st0" points="302.8,250 399.5,250 399.5,386.3 "/>
<polyline class="st0" points="197.2,250 101.5,250 101.5,386.3 "/>
</svg>
